# xmcd
# Copyright (C) 1995-1998 Ti Kan
#
# Track frame offsets:
#       150
#       25500
#       54050
#       74007
#       101752
#       127507
#       147237
#       168502
#       190480
#       211817
#       230580
#       259185
#       280145
#       305522
#
# Disc length: 4385 seconds
#
# Revision: 0
# Processed by: cddbd v1.5.2PL0 Copyright (c) Steve Scherf et al.
# Submitted via: CD-Import v1.0
#
DISCID=c3111f0e
DTITLE=Various Artist - Bob Dylan - The 30th Anniversary Concert Celebrati
DYEAR=1993
DGENRE=
TTITLE0=Neil Young - Just Like Tom Thumb's Blues
TTITLE1=Neil Young - All Along The Watchtower
TTITLE2=Chrissie Hynde - I Shall Be Released
TTITLE3=Eric Clapton - Don't Think Twice, It's All Right
TTITLE4=The O'jays - Emotionally Yours
TTITLE5=The Band - When I Paint My Masterpiece
TTITLE6=George Harrison - Absolutely Sweet Marie
TTITLE7=Tom Petty and The Heartbreakers - License To Kill
TTITLE8=Tom Petty and The Heartbreakers - Rainy Day Women #12 and 35
TTITLE9=Roger Mcguinn - Mr. Tambourine Man
TTITLE10=Bob Dylan - It's Alright, Ma (I'm Only Bleeding)
TTITLE11=Bob Dylan,Mcguinn,Petty,Young,Clapton,Harrison - My Back Pages
TTITLE12=Everyone - Knockin' On Heaven's Door
TTITLE13=Bob Dylan - Girl Of The North Country
EXTD=
EXTT0=
EXTT1=
EXTT2=
EXTT3=
EXTT4=
EXTT5=
EXTT6=
EXTT7=
EXTT8=
EXTT9=
EXTT10=
EXTT11=
EXTT12=
EXTT13=
PLAYORDER=
